<mxfile host="app.diagrams.net" modified="2024-01-10T12:59:57.585Z" agent="Mozilla/5.0 (X11; Linux x86_64) AppleWebKit/537.36 (KHTML, like Gecko) Chrome/120.0.0.0 Safari/537.36" etag="uBdf2yN_Z3OYIy3vkvF_" version="22.1.18" type="github">
  <diagram name="Page-1" id="-x9b_VGvwz7-fTDDV363">
    <mxGraphModel dx="2074" dy="1180" grid="1" gridSize="10" guides="1" tooltips="1" connect="1" arrows="1" fold="1" page="1" pageScale="1" pageWidth="850" pageHeight="1100" math="0" shadow="0">
      <root>
        <mxCell id="0" />
        <mxCell id="1" parent="0" />
        <mxCell id="7yLj9LJbzZn_QPgWSFJ5-5" value="" style="edgeStyle=orthogonalEdgeStyle;rounded=0;orthogonalLoop=1;jettySize=auto;html=1;" edge="1" parent="1" source="7yLj9LJbzZn_QPgWSFJ5-2" target="7yLj9LJbzZn_QPgWSFJ5-4">
          <mxGeometry relative="1" as="geometry" />
        </mxCell>
        <mxCell id="7yLj9LJbzZn_QPgWSFJ5-2" value="&lt;font face=&quot;Comic Sans MS&quot;&gt;&lt;b&gt;dashboard.jsonnet&lt;/b&gt;&lt;/font&gt;" style="rounded=1;whiteSpace=wrap;html=1;" vertex="1" parent="1">
          <mxGeometry x="10" y="410" width="120" height="60" as="geometry" />
        </mxCell>
        <mxCell id="7yLj9LJbzZn_QPgWSFJ5-7" value="" style="edgeStyle=orthogonalEdgeStyle;rounded=0;orthogonalLoop=1;jettySize=auto;html=1;" edge="1" parent="1" source="7yLj9LJbzZn_QPgWSFJ5-3" target="7yLj9LJbzZn_QPgWSFJ5-6">
          <mxGeometry relative="1" as="geometry" />
        </mxCell>
        <mxCell id="7yLj9LJbzZn_QPgWSFJ5-3" value="&lt;b&gt;&lt;font face=&quot;Comic Sans MS&quot;&gt;dashboard-v2.jsonnet&lt;/font&gt;&lt;/b&gt;" style="rounded=1;whiteSpace=wrap;html=1;" vertex="1" parent="1">
          <mxGeometry x="210" y="410" width="120" height="60" as="geometry" />
        </mxCell>
        <mxCell id="7yLj9LJbzZn_QPgWSFJ5-9" value="" style="edgeStyle=orthogonalEdgeStyle;rounded=0;orthogonalLoop=1;jettySize=auto;html=1;" edge="1" parent="1" source="7yLj9LJbzZn_QPgWSFJ5-4" target="7yLj9LJbzZn_QPgWSFJ5-8">
          <mxGeometry relative="1" as="geometry" />
        </mxCell>
        <mxCell id="7yLj9LJbzZn_QPgWSFJ5-4" value="&lt;b style=&quot;&quot;&gt;&lt;font style=&quot;font-size: 20px;&quot; face=&quot;Comic Sans MS&quot;&gt;make&lt;/font&gt;&lt;/b&gt;" style="rounded=1;whiteSpace=wrap;html=1;" vertex="1" parent="1">
          <mxGeometry x="10" y="550" width="120" height="60" as="geometry" />
        </mxCell>
        <mxCell id="7yLj9LJbzZn_QPgWSFJ5-11" value="" style="edgeStyle=orthogonalEdgeStyle;rounded=0;orthogonalLoop=1;jettySize=auto;html=1;" edge="1" parent="1" source="7yLj9LJbzZn_QPgWSFJ5-6" target="7yLj9LJbzZn_QPgWSFJ5-10">
          <mxGeometry relative="1" as="geometry" />
        </mxCell>
        <mxCell id="7yLj9LJbzZn_QPgWSFJ5-6" value="&lt;font face=&quot;Comic Sans MS&quot; style=&quot;font-size: 20px;&quot;&gt;&lt;b&gt;make v2&lt;/b&gt;&lt;/font&gt;" style="whiteSpace=wrap;html=1;rounded=1;" vertex="1" parent="1">
          <mxGeometry x="210" y="550" width="120" height="60" as="geometry" />
        </mxCell>
        <mxCell id="7yLj9LJbzZn_QPgWSFJ5-8" value="&lt;b style=&quot;border-color: var(--border-color);&quot;&gt;dashboard.json&lt;/b&gt;" style="whiteSpace=wrap;html=1;rounded=1;" vertex="1" parent="1">
          <mxGeometry x="10" y="690" width="120" height="60" as="geometry" />
        </mxCell>
        <mxCell id="7yLj9LJbzZn_QPgWSFJ5-10" value="&lt;b&gt;dashboard-v2.json&lt;/b&gt;" style="whiteSpace=wrap;html=1;rounded=1;" vertex="1" parent="1">
          <mxGeometry x="210" y="690" width="120" height="60" as="geometry" />
        </mxCell>
        <mxCell id="7yLj9LJbzZn_QPgWSFJ5-13" value="" style="edgeStyle=orthogonalEdgeStyle;rounded=0;orthogonalLoop=1;jettySize=auto;html=1;" edge="1" parent="1" source="7yLj9LJbzZn_QPgWSFJ5-12" target="7yLj9LJbzZn_QPgWSFJ5-2">
          <mxGeometry relative="1" as="geometry" />
        </mxCell>
        <mxCell id="7yLj9LJbzZn_QPgWSFJ5-12" value="&lt;font face=&quot;Courier New&quot;&gt;&lt;b&gt;&lt;a href=&quot;https://github.com/grafana/grafonnet-lib&quot;&gt;grafonnet-lib&lt;/a&gt;&lt;/b&gt;&lt;/font&gt;" style="rounded=1;whiteSpace=wrap;html=1;" vertex="1" parent="1">
          <mxGeometry x="10" y="290" width="120" height="60" as="geometry" />
        </mxCell>
        <mxCell id="7yLj9LJbzZn_QPgWSFJ5-15" value="" style="edgeStyle=orthogonalEdgeStyle;rounded=0;orthogonalLoop=1;jettySize=auto;html=1;" edge="1" parent="1" source="7yLj9LJbzZn_QPgWSFJ5-14" target="7yLj9LJbzZn_QPgWSFJ5-3">
          <mxGeometry relative="1" as="geometry" />
        </mxCell>
        <mxCell id="7yLj9LJbzZn_QPgWSFJ5-14" value="&lt;font size=&quot;1&quot; face=&quot;Comic Sans MS&quot;&gt;&lt;a style=&quot;&quot; href=&quot;https://github.com/grafana/grafonnet&quot;&gt;&lt;span style=&quot;font-size: 16.6667px;&quot;&gt;grafonnet&lt;/span&gt;&lt;/a&gt;&lt;/font&gt;" style="rounded=1;whiteSpace=wrap;html=1;" vertex="1" parent="1">
          <mxGeometry x="210" y="290" width="120" height="60" as="geometry" />
        </mxCell>
      </root>
    </mxGraphModel>
  </diagram>
</mxfile>
